<svg width="106" height="25" viewBox="0 0 106 25" fill="none" xmlns="http://www.w3.org/2000/svg">
<g clip-path="url(#clip0_1_35)">
<path d="M13.0601 0.5H10.9434V24.5H13.0601V0.5Z" fill="#242424"/>
<path d="M24 11.4434H0V13.5601H24V11.4434Z" fill="#242424"/>
<path d="M19.738 3.26934L2.76741 20.2399L4.26415 21.7366L21.2347 4.76608L19.738 3.26934Z" fill="#242424"/>
<path d="M4.26415 3.26687L2.76741 4.76361L19.738 21.7342L21.2347 20.2374L4.26415 3.26687Z" fill="#242424"/>
</g>
<path d="M39.41 20.3C37.97 20.3 36.7433 19.9867 35.73 19.36C34.7167 18.7267 33.94 17.8467 33.4 16.72C32.8667 15.5933 32.6 14.2867 32.6 12.8C32.6 11.3133 32.8667 10.0067 33.4 8.88C33.94 7.75333 34.7167 6.87667 35.73 6.25C36.7433 5.61667 37.97 5.3 39.41 5.3C41.07 5.3 42.4433 5.72 43.53 6.56C44.6233 7.4 45.3833 8.53 45.81 9.95L43.69 10.52C43.41 9.51333 42.91 8.72333 42.19 8.15C41.4767 7.57667 40.55 7.29 39.41 7.29C38.39 7.29 37.54 7.52 36.86 7.98C36.18 8.44 35.6667 9.08333 35.32 9.91C34.98 10.7367 34.81 11.7 34.81 12.8C34.8033 13.9 34.97 14.8633 35.31 15.69C35.6567 16.5167 36.17 17.16 36.85 17.62C37.5367 18.08 38.39 18.31 39.41 18.31C40.55 18.31 41.4767 18.0233 42.19 17.45C42.91 16.87 43.41 16.08 43.69 15.08L45.81 15.65C45.3833 17.07 44.6233 18.2 43.53 19.04C42.4433 19.88 41.07 20.3 39.41 20.3ZM52.6994 20.3C51.6194 20.3 50.6827 20.0567 49.8894 19.57C49.096 19.0833 48.4827 18.4133 48.0494 17.56C47.6227 16.7 47.4094 15.71 47.4094 14.59C47.4094 13.4633 47.6294 12.4733 48.0694 11.62C48.5094 10.76 49.126 10.0933 49.9194 9.62C50.7127 9.14 51.6394 8.9 52.6994 8.9C53.7794 8.9 54.716 9.14333 55.5094 9.63C56.3027 10.1167 56.916 10.7867 57.3494 11.64C57.7827 12.4933 57.9994 13.4767 57.9994 14.59C57.9994 15.7167 57.7794 16.71 57.3394 17.57C56.906 18.4233 56.2927 19.0933 55.4994 19.58C54.706 20.06 53.7727 20.3 52.6994 20.3ZM52.6994 18.33C53.7327 18.33 54.5027 17.9833 55.0094 17.29C55.5227 16.59 55.7794 15.69 55.7794 14.59C55.7794 13.4633 55.5194 12.5633 54.9994 11.89C54.486 11.21 53.7194 10.87 52.6994 10.87C51.9994 10.87 51.4227 11.03 50.9694 11.35C50.516 11.6633 50.1794 12.1 49.9594 12.66C49.7394 13.2133 49.6294 13.8567 49.6294 14.59C49.6294 15.7233 49.8894 16.63 50.4094 17.31C50.9294 17.99 51.6927 18.33 52.6994 18.33ZM64.4869 20.3C63.4802 20.3 62.6102 20.05 61.8769 19.55C61.1502 19.05 60.5869 18.37 60.1869 17.51C59.7935 16.6433 59.5969 15.67 59.5969 14.59C59.5969 13.5033 59.7969 12.5333 60.1969 11.68C60.5969 10.82 61.1635 10.1433 61.8969 9.65C62.6369 9.15 63.5135 8.9 64.5269 8.9C65.5469 8.9 66.4035 9.15 67.0969 9.65C67.7969 10.1433 68.3235 10.82 68.6769 11.68C69.0369 12.54 69.2169 13.51 69.2169 14.59C69.2169 15.67 69.0369 16.64 68.6769 17.5C68.3169 18.36 67.7869 19.0433 67.0869 19.55C66.3869 20.05 65.5202 20.3 64.4869 20.3ZM64.7769 18.41C65.4635 18.41 66.0235 18.2467 66.4569 17.92C66.8902 17.5933 67.2069 17.1433 67.4069 16.57C67.6069 15.9967 67.7069 15.3367 67.7069 14.59C67.7069 13.8433 67.6035 13.1833 67.3969 12.61C67.1969 12.0367 66.8835 11.59 66.4569 11.27C66.0369 10.95 65.5002 10.79 64.8469 10.79C64.1535 10.79 63.5835 10.96 63.1369 11.3C62.6902 11.64 62.3569 12.0967 62.1369 12.67C61.9235 13.2433 61.8169 13.8833 61.8169 14.59C61.8169 15.3033 61.9235 15.95 62.1369 16.53C62.3569 17.1033 62.6835 17.56 63.1169 17.9C63.5569 18.24 64.1102 18.41 64.7769 18.41ZM67.7069 20V12.23H67.4669V5.6H69.5669V20H67.7069ZM76.6548 20.3C75.6482 20.3 74.7782 20.05 74.0448 19.55C73.3182 19.05 72.7548 18.37 72.3548 17.51C71.9615 16.6433 71.7648 15.67 71.7648 14.59C71.7648 13.5033 71.9648 12.5333 72.3648 11.68C72.7648 10.82 73.3315 10.1433 74.0648 9.65C74.8048 9.15 75.6815 8.9 76.6948 8.9C77.7148 8.9 78.5715 9.15 79.2648 9.65C79.9648 10.1433 80.4915 10.82 80.8448 11.68C81.2048 12.54 81.3848 13.51 81.3848 14.59C81.3848 15.67 81.2048 16.64 80.8448 17.5C80.4848 18.36 79.9548 19.0433 79.2548 19.55C78.5548 20.05 77.6882 20.3 76.6548 20.3ZM76.9448 18.41C77.6315 18.41 78.1915 18.2467 78.6248 17.92C79.0582 17.5933 79.3748 17.1433 79.5748 16.57C79.7748 15.9967 79.8748 15.3367 79.8748 14.59C79.8748 13.8433 79.7715 13.1833 79.5648 12.61C79.3648 12.0367 79.0515 11.59 78.6248 11.27C78.2048 10.95 77.6682 10.79 77.0148 10.79C76.3215 10.79 75.7515 10.96 75.3048 11.3C74.8582 11.64 74.5248 12.0967 74.3048 12.67C74.0915 13.2433 73.9848 13.8833 73.9848 14.59C73.9848 15.3033 74.0915 15.95 74.3048 16.53C74.5248 17.1033 74.8515 17.56 75.2848 17.9C75.7248 18.24 76.2782 18.41 76.9448 18.41ZM79.8748 20V12.23H79.6348V5.6H81.7348V20H79.8748ZM89.3228 20.3C88.2495 20.3 87.3061 20.0667 86.4928 19.6C85.6861 19.1267 85.0561 18.47 84.6028 17.63C84.1561 16.7833 83.9328 15.8033 83.9328 14.69C83.9328 13.51 84.1528 12.4867 84.5928 11.62C85.0395 10.7533 85.6595 10.0833 86.4528 9.61C87.2461 9.13667 88.1695 8.9 89.2228 8.9C90.3228 8.9 91.2595 9.15667 92.0328 9.67C92.8061 10.1767 93.3828 10.9 93.7628 11.84C94.1495 12.78 94.3028 13.8967 94.2228 15.19H92.1328V14.43C92.1195 13.1767 91.8795 12.25 91.4128 11.65C90.9528 11.05 90.2495 10.75 89.3028 10.75C88.2561 10.75 87.4695 11.08 86.9428 11.74C86.4161 12.4 86.1528 13.3533 86.1528 14.6C86.1528 15.7867 86.4161 16.7067 86.9428 17.36C87.4695 18.0067 88.2295 18.33 89.2228 18.33C89.8761 18.33 90.4395 18.1833 90.9128 17.89C91.3928 17.59 91.7661 17.1633 92.0328 16.61L94.0828 17.26C93.6628 18.2267 93.0261 18.9767 92.1728 19.51C91.3195 20.0367 90.3695 20.3 89.3228 20.3ZM85.4728 15.19V13.56H93.1828V15.19H85.4728ZM94.8758 20L98.9158 14.54L94.9658 9.2H97.4458L100.136 12.91L102.796 9.2H105.276L101.326 14.54L105.376 20H102.886L100.136 16.17L97.3658 20H94.8758Z" fill="#242424"/>
<defs>
<clipPath id="clip0_1_35">
<rect width="24" height="24" fill="white" transform="translate(0 0.5)"/>
</clipPath>
</defs>
</svg>
